2017-02-24 14:45:25
running
2017-02-24 14:45:31
{'/Volumes/G-SPEED Q/Titan-HD/HM/IncomingSC/S2016_001_AEWVJA_006_STO_007': ['WJM_History Makers Interview01.mov', 'WJM_History Makers Interview02.mov']}
ffmpeg version 3.1.1 Copyright (c) 2000-2016 the FFmpeg developers
  built with Apple LLVM version 7.3.0 (clang-703.0.31)
  configuration: --prefix=/usr/local/Cellar/ffmpeg/3.1.1 --enable-shared --enable-pthreads --enable-gpl --enable-version3 --enable-hardcoded-tables --enable-avresample --cc=clang --host-cflags= --host-ldflags= --enable-opencl --enable-libx264 --enable-libmp3lame --enable-libxvid --enable-libfreetype --enable-libvorbis --enable-libvpx --enable-libass --enable-ffplay --enable-libfdk-aac --enable-libopus --enable-libx265 --disable-lzma --enable-nonfree --enable-vda
  libavutil      55. 28.100 / 55. 28.100
  libavcodec     57. 48.101 / 57. 48.101
  libavformat    57. 41.100 / 57. 41.100
  libavdevice    57.  0.101 / 57.  0.101
  libavfilter     6. 47.100 /  6. 47.100
  libavresample   3.  0.  0 /  3.  0.  0
  libswscale      4.  1.100 /  4.  1.100
  libswresample   2.  1.100 /  2.  1.100
  libpostproc    54.  0.100 / 54.  0.100
[mov,mp4,m4a,3gp,3g2,mj2 @ 0x7fc183000600] Auto-inserting h264_mp4toannexb bitstream filter
[concat @ 0x7fc182800000] Could not find codec parameters for stream 2 (Unknown: none): unknown codec
Consider increasing the value for the 'analyzeduration' and 'probesize' options
Input #0, concat, from 'concat.txt':
  Duration: N/A, start: 0.000000, bitrate: 10163 kb/s
    Stream #0:0(eng): Video: h264 (Main) (avc1 / 0x31637661), yuv420p(tv, bt709), 1920x1080, 10035 kb/s, SAR 1:1 DAR 16:9, 29.97 fps, 29.97 tbr, 30k tbn, 60k tbc
    Metadata:
      creation_time   : 2016-03-18 16:40:10
      handler_name    : Apple Alias Data Handler
      encoder         : H.264
      timecode        : 00:00:00:00
    Stream #0:1(eng): Audio: aac (LC) (mp4a / 0x6134706D), 48000 Hz, stereo, fltp, 127 kb/s
    Metadata:
      creation_time   : 2016-03-18 16:40:10
      handler_name    : Apple Alias Data Handler
      timecode        : 00:00:00:00
    Stream #0:2: Unknown: none
Cannot map stream #0:2 - unsupported type.
[mov @ 0x7fc182924e00] Using AVStream.codec to pass codec parameters to muxers is deprecated, use AVStream.codecpar instead.
    Last message repeated 1 times
Output #0, mov, to 'S2016_001_AEWVJA_006_STO_007.mov':
  Metadata:
    encoder         : Lavf57.41.100
    Stream #0:0(eng): Video: h264 (avc1 / 0x31637661), yuv420p(tv, bt709), 1920x1080 [SAR 1:1 DAR 16:9], q=2-31, 10035 kb/s, 0.03 fps, 29.97 tbr, 30k tbn, 30k tbc
    Metadata:
      creation_time   : 2016-03-18 16:40:10
      handler_name    : Apple Alias Data Handler
      encoder         : H.264
      timecode        : 00:00:00:00
    Stream #0:1(eng): Audio: aac (LC) (mp4a / 0x6134706D), 48000 Hz, stereo, 127 kb/s
    Metadata:
      creation_time   : 2016-03-18 16:40:10
      handler_name    : Apple Alias Data Handler
      timecode        : 00:00:00:00
Stream mapping:
  Stream #0:0 -> #0:0 (copy)
  Stream #0:1 -> #0:1 (copy)
Press [q] to stop, [?] for help
frame=  686 fps=0.0 q=-1.0 size=   27182kB time=00:00:22.85 bitrate=9742.3kbits/s speed=45.7x    frame= 1356 fps=1356 q=-1.0 size=   55057kB time=00:00:45.21 bitrate=9975.9kbits/s speed=45.2x    frame= 1696 fps=1131 q=-1.0 size=   69318kB time=00:00:56.55 bitrate=10040.4kbits/s speed=37.7x    frame= 2222 fps=1111 q=-1.0 size=   91124kB time=00:01:14.10 bitrate=10073.1kbits/s speed=  37x    frame= 2803 fps=1121 q=-1.0 size=  114741kB time=00:01:33.49 bitrate=10053.7kbits/s speed=37.4x    frame= 3297 fps=1098 q=-1.0 size=  135395kB time=00:01:49.97 bitrate=10085.4kbits/s speed=36.6x    frame= 3933 fps=1123 q=-1.0 size=  161565kB time=00:02:11.19 bitrate=10088.1kbits/s speed=37.5x    frame= 4211 fps=1052 q=-1.0 size=  173096kB time=00:02:20.47 bitrate=10094.4kbits/s speed=35.1x    frame= 4786 fps=1063 q=-1.0 size=  196905kB time=00:02:39.65 bitrate=10103.0kbits/s speed=35.5x    frame= 5390 fps=1077 q=-1.0 size=  221495kB time=00:02:59.81 bitrate=10091.0kbits/s speed=35.9x    frame= 5485 fps=997 q=-1.0 size=  225682kB time=00:03:02.98 bitrate=10103.6kbits/s speed=33.2x    frame= 5960 fps=993 q=-1.0 size=  245797kB time=00:03:18.83 bitrate=10127.0kbits/s speed=33.1x    frame= 6597 fps=1010 q=-1.0 size=  271443kB time=00:03:40.08 bitrate=10103.6kbits/s speed=33.7x    frame= 6902 fps=979 q=-1.0 size=  284714kB time=00:03:50.26 bitrate=10129.2kbits/s speed=32.7x    frame= 7500 fps=992 q=-1.0 size=  309297kB time=00:04:10.21 bitrate=10126.3kbits/s speed=33.1x    frame= 8075 fps=1002 q=-1.0 size=  333443kB time=00:04:29.40 bitrate=10139.4kbits/s speed=33.4x    frame= 8392 fps=981 q=-1.0 size=  346564kB time=00:04:39.97 bitrate=10140.2kbits/s speed=32.7x    frame= 9000 fps=992 q=-1.0 size=  370763kB time=00:05:00.26 bitrate=10115.3kbits/s speed=33.1x    frame= 9564 fps=999 q=-1.0 size=  394600kB time=00:05:19.08 bitrate=10130.7kbits/s speed=33.3x    frame= 9943 fps=987 q=-1.0 size=  410384kB time=00:05:31.73 bitrate=10134.3kbits/s speed=32.9x    frame=10538 fps=996 q=-1.0 size=  434210kB time=00:05:51.58 bitrate=10117.2kbits/s speed=33.2x    frame=10920 fps=986 q=-1.0 size=  449698kB time=00:06:04.33 bitrate=10111.5kbits/s speed=32.9x    [mov,mp4,m4a,3gp,3g2,mj2 @ 0x7fc183000600] Auto-inserting h264_mp4toannexb bitstream filter
frame=11406 fps=970 q=-1.0 size=  472130kB time=00:06:20.56 bitrate=10163.0kbits/s speed=32.4x    [mov @ 0x7fc182924e00] Non-monotonous DTS in output stream 0:1; previous: 18266112, current: 18264646; changing to 18266113. This may result in incorrect timestamps in the output file.
[mov @ 0x7fc182924e00] Non-monotonous DTS in output stream 0:1; previous: 18266113, current: 18265670; changing to 18266114. This may result in incorrect timestamps in the output file.
frame=12011 fps=980 q=-1.0 size=  495911kB time=00:06:40.73 bitrate=10137.7kbits/s speed=32.7x    frame=12304 fps=965 q=-1.0 size=  508034kB time=00:06:50.51 bitrate=10138.2kbits/s speed=32.2x    frame=12581 fps=949 q=-1.0 size=  520095kB time=00:06:59.75 bitrate=10150.3kbits/s speed=31.7x    frame=13174 fps=958 q=-1.0 size=  544117kB time=00:07:19.53 bitrate=10141.1kbits/s speed=  32x    frame=13511 fps=943 q=-1.0 size=  558206kB time=00:07:30.78 bitrate=10144.2kbits/s speed=31.5x    frame=14083 fps=950 q=-1.0 size=  581780kB time=00:07:49.86 bitrate=10143.1kbits/s speed=31.7x    frame=14314 fps=951 q=-1.0 Lsize=  592950kB time=00:07:57.66 bitrate=10169.1kbits/s speed=31.7x    
video:585082kB audio:7464kB subtitle:0kB other streams:0kB global headers:0kB muxing overhead: 0.068241%
2017-02-24 14:45:46
concatenation of raw MOVs successful
ffmpeg version 3.1.1 Copyright (c) 2000-2016 the FFmpeg developers
  built with Apple LLVM version 7.3.0 (clang-703.0.31)
  configuration: --prefix=/usr/local/Cellar/ffmpeg/3.1.1 --enable-shared --enable-pthreads --enable-gpl --enable-version3 --enable-hardcoded-tables --enable-avresample --cc=clang --host-cflags= --host-ldflags= --enable-opencl --enable-libx264 --enable-libmp3lame --enable-libxvid --enable-libfreetype --enable-libvorbis --enable-libvpx --enable-libass --enable-ffplay --enable-libfdk-aac --enable-libopus --enable-libx265 --disable-lzma --enable-nonfree --enable-vda
  libavutil      55. 28.100 / 55. 28.100
  libavcodec     57. 48.101 / 57. 48.101
  libavformat    57. 41.100 / 57. 41.100
  libavdevice    57.  0.101 / 57.  0.101
  libavfilter     6. 47.100 /  6. 47.100
  libavresample   3.  0.  0 /  3.  0.  0
  libswscale      4.  1.100 /  4.  1.100
  libswresample   2.  1.100 /  2.  1.100
  libpostproc    54.  0.100 / 54.  0.100
Input #0, mov,mp4,m4a,3gp,3g2,mj2, from 'S2016_001_AEWVJA_006_STO_007.mov':
  Metadata:
    major_brand     : qt  
    minor_version   : 512
    compatible_brands: qt  
    encoder         : Lavf57.41.100
  Duration: 00:07:57.67, start: 0.000000, bitrate: 10169 kb/s
    Stream #0:0(eng): Video: h264 (Main) (avc1 / 0x31637661), yuv420p(tv, bt709), 1920x1080, 10035 kb/s, 29.97 fps, 29.97 tbr, 30k tbn, 60k tbc (default)
    Metadata:
      handler_name    : DataHandler
      encoder         : H.264
      timecode        : 00:00:00:00
    Stream #0:1(eng): Audio: aac (LC) (mp4a / 0x6134706D), 48000 Hz, stereo, fltp, 128 kb/s (default)
    Metadata:
      handler_name    : DataHandler
    Stream #0:2(eng): Data: none (tmcd / 0x64636D74)
    Metadata:
      handler_name    : DataHandler
      timecode        : 00:00:00:00
Input #1, png_pipe, from '/Volumes/G-SPEED Q/Titan-HD/HM/Watermark/Video WaterMark_White.png':
  Duration: N/A, bitrate: N/A
    Stream #1:0: Video: png, rgba(pc), 319x180 [SAR 2835:2835 DAR 319:180], 25 tbr, 25 tbn, 25 tbc
[libx264 @ 0x7fc94200f600] using cpu capabilities: MMX2 SSE2Fast SSSE3 SSE4.2 AVX FMA3 AVX2 LZCNT BMI2
[libx264 @ 0x7fc94200f600] profile High, level 2.0
[libx264 @ 0x7fc94200f600] 264 - core 148 r2668 fd2c324 - H.264/MPEG-4 AVC codec - Copyleft 2003-2016 - http://www.videolan.org/x264.html - options: cabac=1 ref=2 deblock=1:0:0 analyse=0x3:0x113 me=hex subme=6 psy=1 psy_rd=1.00:0.00 mixed_ref=1 me_range=16 chroma_me=1 trellis=1 8x8dct=1 cqm=0 deadzone=21,11 fast_pskip=1 chroma_qp_offset=-2 threads=6 lookahead_threads=1 sliced_threads=0 nr=0 decimate=1 interlaced=0 bluray_compat=0 constrained_intra=0 bframes=3 b_pyramid=2 b_adapt=1 b_bias=0 direct=1 weightb=1 open_gop=0 weightp=1 keyint=250 keyint_min=25 scenecut=40 intra_refresh=0 rc_lookahead=30 rc=abr mbtree=1 bitrate=700 ratetol=1.0 qcomp=0.60 qpmin=0 qpmax=69 qpstep=4 ip_ratio=1.40 aq=1:1.00
[flv @ 0x7fc942017c00] Using AVStream.codec to pass codec parameters to muxers is deprecated, use AVStream.codecpar instead.
    Last message repeated 1 times
Output #0, flv, to 'S2016_001_AEWVJA_006_STO_007.flv':
  Metadata:
    major_brand     : qt  
    minor_version   : 512
    compatible_brands: qt  
    timecode        : 07:00:00:00
    encoder         : Lavf57.41.100
    Stream #0:0: Video: h264 (libx264) ([7][0][0][0] / 0x0007), yuv420p, 320x180, q=-1--1, 700 kb/s, 29.97 fps, 1k tbn, 29.97 tbc (default)
    Metadata:
      encoder         : Lavc57.48.101 libx264
    Side data:
      cpb: bitrate max/min/avg: 0/0/700000 buffer size: 0 vbv_delay: -1
    Stream #0:1(eng): Audio: aac (LC) ([10][0][0][0] / 0x000A), 48000 Hz, stereo, fltp, 128 kb/s (default)
    Metadata:
      handler_name    : DataHandler
      encoder         : Lavc57.48.101 aac
Stream mapping:
  Stream #0:0 (h264) -> scale (graph 0)
  Stream #1:0 (png) -> overlay:overlay (graph 0)
  overlay (graph 0) -> Stream #0:0 (libx264)
  Stream #0:1 -> #0:1 (aac (native) -> aac (native))
Press [q] to stop, [?] for help
[png @ 0x7fc9418dcc00] Invalid PNG signature 0x323031362D31302D.
Error while decoding stream #1:0: Invalid data found when processing input
frame=   95 fps=0.0 q=15.0 size=     166kB time=00:00:03.26 bitrate= 417.5kbits/s speed=6.52x    frame=  180 fps=180 q=14.0 size=     440kB time=00:00:06.10 bitrate= 590.8kbits/s speed= 6.1x    frame=  270 fps=180 q=14.0 size=     745kB time=00:00:09.11 bitrate= 670.0kbits/s speed=6.07x    frame=  350 fps=175 q=14.0 size=    1038kB time=00:00:11.77 bitrate= 721.7kbits/s speed=5.88x    frame=  443 fps=177 q=14.0 size=    1352kB time=00:00:14.87 bitrate= 745.0kbits/s speed=5.93x    frame=  539 fps=179 q=15.0 size=    1687kB time=00:00:18.04 bitrate= 765.7kbits/s speed=   6x    frame=  633 fps=181 q=15.0 size=    2023kB time=00:00:21.22 bitrate= 780.9kbits/s speed=6.05x    frame=  722 fps=180 q=15.0 size=    2329kB time=00:00:24.15 bitrate= 790.2kbits/s speed=6.02x    frame=  819 fps=182 q=15.0 size=    2656kB time=00:00:27.39 bitrate= 794.2kbits/s speed=6.07x    frame=  911 fps=182 q=15.0 size=    2977kB time=00:00:30.46 bitrate= 800.6kbits/s speed=6.08x    frame= 1005 fps=182 q=15.0 size=    3303kB time=00:00:33.60 bitrate= 805.4kbits/s speed= 6.1x    frame= 1100 fps=183 q=15.0 size=    3633kB time=00:00:36.80 bitrate= 808.8kbits/s speed=6.12x    frame= 1191 fps=183 q=15.0 size=    3938kB time=00:00:39.83 bitrate= 809.9kbits/s speed=6.12x    frame= 1284 fps=183 q=15.0 size=    4262kB time=00:00:42.90 bitrate= 813.8kbits/s speed=6.12x    frame= 1377 fps=183 q=15.0 size=    4587kB time=00:00:46.03 bitrate= 816.2kbits/s speed=6.13x    frame= 1473 fps=184 q=15.0 size=    4928kB time=00:00:49.23 bitrate= 819.9kbits/s speed=6.14x    frame= 1568 fps=184 q=15.0 size=    5250kB time=00:00:52.41 bitrate= 820.5kbits/s speed=6.15x    frame= 1663 fps=184 q=15.0 size=    5557kB time=00:00:55.57 bitrate= 819.1kbits/s speed=6.16x    frame= 1760 fps=185 q=14.0 size=    5859kB time=00:00:58.81 bitrate= 816.1kbits/s speed=6.18x    frame= 1854 fps=185 q=15.0 size=    6204kB time=00:01:01.95 bitrate= 820.3kbits/s speed=6.18x    frame= 1950 fps=185 q=15.0 size=    6532kB time=00:01:05.17 bitrate= 821.1kbits/s speed= 6.2x    frame= 2042 fps=185 q=15.0 size=    6857kB time=00:01:08.24 bitrate= 823.0kbits/s speed=6.19x    frame= 2139 fps=186 q=15.0 size=    7184kB time=00:01:11.46 bitrate= 823.5kbits/s speed= 6.2x    frame= 2232 fps=186 q=15.0 size=    7498kB time=00:01:14.53 bitrate= 824.0kbits/s speed= 6.2x    frame= 2328 fps=186 q=15.0 size=    7824kB time=00:01:17.76 bitrate= 824.2kbits/s speed=6.21x    frame= 2425 fps=186 q=15.0 size=    8170kB time=00:01:21.00 bitrate= 826.2kbits/s speed=6.22x    frame= 2521 fps=186 q=15.0 size=    8511kB time=00:01:24.20 bitrate= 828.1kbits/s speed=6.23x    frame= 2612 fps=186 q=15.0 size=    8827kB time=00:01:27.23 bitrate= 828.9kbits/s speed=6.22x    frame= 2704 fps=186 q=15.0 size=    9170kB time=00:01:30.30 bitrate= 831.8kbits/s speed=6.22x    frame= 2799 fps=186 q=15.0 size=    9501kB time=00:01:33.50 bitrate= 832.4kbits/s speed=6.22x    frame= 2890 fps=186 q=15.0 size=    9800kB time=00:01:36.53 bitrate= 831.7kbits/s speed=6.21x    frame= 2984 fps=186 q=15.0 size=   10108kB time=00:01:39.64 bitrate= 831.0kbits/s speed=6.21x    frame= 3081 fps=186 q=15.0 size=   10426kB time=00:01:42.89 bitrate= 830.1kbits/s speed=6.22x    frame= 3177 fps=186 q=15.0 size=   10756kB time=00:01:46.09 bitrate= 830.6kbits/s speed=6.23x    frame= 3273 fps=187 q=15.0 size=   11069kB time=00:01:49.29 bitrate= 829.7kbits/s speed=6.23x    frame= 3368 fps=187 q=15.0 size=   11415kB time=00:01:52.47 bitrate= 831.5kbits/s speed=6.23x    frame= 3463 fps=187 q=15.0 size=   11721kB time=00:01:55.64 bitrate= 830.3kbits/s speed=6.24x    frame= 3560 fps=187 q=15.0 size=   12050kB time=00:01:58.84 bitrate= 830.6kbits/s speed=6.24x    frame= 3652 fps=187 q=15.0 size=   12378kB time=00:02:01.94 bitrate= 831.6kbits/s speed=6.24x    frame= 3752 fps=187 q=15.0 size=   12717kB time=00:02:05.29 bitrate= 831.5kbits/s speed=6.25x    frame= 3845 fps=187 q=15.0 size=   13042kB time=00:02:08.38 bitrate= 832.2kbits/s speed=6.25x    frame= 3934 fps=187 q=15.0 size=   13356kB time=00:02:11.35 bitrate= 833.0kbits/s speed=6.24x    frame= 4022 fps=187 q=15.0 size=   13638kB time=00:02:14.27 bitrate= 832.1kbits/s speed=6.23x    frame= 4113 fps=187 q=15.0 size=   13948kB time=00:02:17.30 bitrate= 832.2kbits/s speed=6.23x    frame= 4203 fps=186 q=15.0 size=   14256kB time=00:02:20.33 bitrate= 832.2kbits/s speed=6.22x    frame= 4294 fps=186 q=15.0 size=   14576kB time=00:02:23.33 bitrate= 833.0kbits/s speed=6.22x    frame= 4388 fps=186 q=15.0 size=   14879kB time=00:02:26.51 bitrate= 831.9kbits/s speed=6.22x    frame= 4480 fps=186 q=15.0 size=   15233kB time=00:02:29.59 bitrate= 834.2kbits/s speed=6.22x    frame= 4573 fps=186 q=15.0 size=   15546kB time=00:02:32.66 bitrate= 834.2kbits/s speed=6.22x    frame= 4663 fps=186 q=15.0 size=   15848kB time=00:02:35.69 bitrate= 833.9kbits/s speed=6.22x    frame= 4750 fps=186 q=15.0 size=   16136kB time=00:02:38.59 bitrate= 833.5kbits/s speed=6.21x    frame= 4845 fps=186 q=15.0 size=   16451kB time=00:02:41.77 bitrate= 833.1kbits/s speed=6.21x    frame= 4939 fps=186 q=15.0 size=   16765kB time=00:02:44.88 bitrate= 832.9kbits/s speed=6.21x    frame= 5031 fps=186 q=15.0 size=   17095kB time=00:02:47.93 bitrate= 833.9kbits/s speed=6.21x    frame= 5114 fps=186 q=15.0 size=   17438kB time=00:02:50.73 bitrate= 836.7kbits/s speed= 6.2x    frame= 5201 fps=185 q=15.0 size=   17739kB time=00:02:53.63 bitrate= 836.9kbits/s speed=6.19x    frame= 5295 fps=185 q=15.0 size=   18069kB time=00:02:56.76 bitrate= 837.4kbits/s speed=6.19x    frame= 5388 fps=185 q=15.0 size=   18346kB time=00:02:59.84 bitrate= 835.7kbits/s speed=6.19x    frame= 5483 fps=186 q=15.0 size=   18649kB time=00:03:03.06 bitrate= 834.6kbits/s speed=6.19x    frame= 5584 fps=186 q=15.0 size=   18981kB time=00:03:06.41 bitrate= 834.1kbits/s speed= 6.2x    frame= 5682 fps=186 q=15.0 size=   19283kB time=00:03:09.65 bitrate= 832.9kbits/s speed=6.21x    frame= 5775 fps=186 q=15.0 size=   19595kB time=00:03:12.76 bitrate= 832.7kbits/s speed=6.21x    frame= 5870 fps=186 q=15.0 size=   19915kB time=00:03:15.94 bitrate= 832.6kbits/s speed=6.21x    frame= 5967 fps=186 q=15.0 size=   20253kB time=00:03:19.19 bitrate= 832.9kbits/s speed=6.21x    frame= 6064 fps=186 q=15.0 size=   20589kB time=00:03:22.41 bitrate= 833.3kbits/s speed=6.22x    frame= 6162 fps=186 q=15.0 size=   20922kB time=00:03:25.67 bitrate= 833.3kbits/s speed=6.22x    frame= 6258 fps=186 q=15.0 size=   21234kB time=00:03:28.89 bitrate= 832.7kbits/s speed=6.22x    frame= 6355 fps=187 q=15.0 size=   21563kB time=00:03:32.13 bitrate= 832.7kbits/s speed=6.23x    frame= 6445 fps=186 q=15.0 size=   21908kB time=00:03:35.14 bitrate= 834.2kbits/s speed=6.22x    frame= 6533 fps=186 q=15.0 size=   22255kB time=00:03:38.04 bitrate= 836.1kbits/s speed=6.22x    frame= 6627 fps=186 q=15.0 size=   22581kB time=00:03:41.20 bitrate= 836.2kbits/s speed=6.22x    frame= 6726 fps=186 q=15.0 size=   22899kB time=00:03:44.53 bitrate= 835.5kbits/s speed=6.22x    frame= 6826 fps=187 q=15.0 size=   23215kB time=00:03:47.81 bitrate= 834.8kbits/s speed=6.23x    frame= 6922 fps=187 q=15.0 size=   23529kB time=00:03:51.04 bitrate= 834.3kbits/s speed=6.23x    frame= 7013 fps=187 q=15.0 size=   23850kB time=00:03:54.07 bitrate= 834.7kbits/s speed=6.23x    frame= 7106 fps=187 q=15.0 size=   24182kB time=00:03:57.18 bitrate= 835.2kbits/s speed=6.23x    frame= 7203 fps=187 q=15.0 size=   24536kB time=00:04:00.42 bitrate= 836.0kbits/s speed=6.23x    frame= 7298 fps=187 q=15.0 size=   24851kB time=00:04:03.58 bitrate= 835.8kbits/s speed=6.23x    frame= 7389 fps=187 q=15.0 size=   25149kB time=00:04:06.65 bitrate= 835.3kbits/s speed=6.23x    frame= 7481 fps=187 q=15.0 size=   25447kB time=00:04:09.70 bitrate= 834.8kbits/s speed=6.23x    frame= 7580 fps=187 q=15.0 size=   25796kB time=00:04:13.01 bitrate= 835.2kbits/s speed=6.23x    frame= 7680 fps=187 q=15.0 size=   26136kB time=00:04:16.34 bitrate= 835.2kbits/s speed=6.24x    frame= 7770 fps=187 q=15.0 size=   26437kB time=00:04:19.32 bitrate= 835.1kbits/s speed=6.24x    frame= 7862 fps=187 q=15.0 size=   26738kB time=00:04:22.40 bitrate= 834.7kbits/s speed=6.23x    frame= 7955 fps=187 q=15.0 size=   27045kB time=00:04:25.51 bitrate= 834.4kbits/s speed=6.23x    frame= 8051 fps=187 q=15.0 size=   27393kB time=00:04:28.71 bitrate= 835.1kbits/s speed=6.24x    frame= 8145 fps=187 q=15.0 size=   27683kB time=00:04:31.87 bitrate= 834.2kbits/s speed=6.24x    frame= 8239 fps=187 q=15.0 size=   28007kB time=00:04:35.00 bitrate= 834.3kbits/s speed=6.24x    frame= 8334 fps=187 q=15.0 size=   28326kB time=00:04:38.16 bitrate= 834.2kbits/s speed=6.24x    frame= 8434 fps=187 q=15.0 size=   28662kB time=00:04:41.49 bitrate= 834.1kbits/s speed=6.24x    frame= 8526 fps=187 q=15.0 size=   29010kB time=00:04:44.56 bitrate= 835.1kbits/s speed=6.24x    frame= 8619 fps=187 q=15.0 size=   29341kB time=00:04:47.65 bitrate= 835.6kbits/s speed=6.24x    frame= 8708 fps=187 q=15.0 size=   29643kB time=00:04:50.64 bitrate= 835.5kbits/s speed=6.24x    frame= 8806 fps=187 q=15.0 size=   30039kB time=00:04:53.88 bitrate= 837.3kbits/s speed=6.24x    frame= 8902 fps=187 q=15.0 size=   30356kB time=00:04:57.11 bitrate= 837.0kbits/s speed=6.24x    frame= 8998 fps=187 q=15.0 size=   30672kB time=00:05:00.33 bitrate= 836.6kbits/s speed=6.24x    frame= 9095 fps=187 q=15.0 size=   30997kB time=00:05:03.55 bitrate= 836.5kbits/s speed=6.25x    frame= 9194 fps=187 q=15.0 size=   31316kB time=00:05:06.85 bitrate= 836.0kbits/s speed=6.25x    frame= 9288 fps=187 q=15.0 size=   31624kB time=00:05:09.97 bitrate= 835.8kbits/s speed=6.25x    frame= 9381 fps=187 q=15.0 size=   31958kB time=00:05:13.11 bitrate= 836.1kbits/s speed=6.25x    frame= 9478 fps=187 q=15.0 size=   32303kB time=00:05:16.31 bitrate= 836.6kbits/s speed=6.25x    frame= 9576 fps=187 q=15.0 size=   32624kB time=00:05:19.61 bitrate= 836.2kbits/s speed=6.25x    frame= 9674 fps=187 q=15.0 size=   32942kB time=00:05:22.88 bitrate= 835.8kbits/s speed=6.26x    frame= 9776 fps=188 q=15.0 size=   33261kB time=00:05:26.27 bitrate= 835.1kbits/s speed=6.26x    frame= 9866 fps=187 q=15.0 size=   33591kB time=00:05:29.28 bitrate= 835.7kbits/s speed=6.26x    frame= 9960 fps=187 q=15.0 size=   33877kB time=00:05:32.43 bitrate= 834.8kbits/s speed=6.26x    frame=10055 fps=188 q=15.0 size=   34217kB time=00:05:35.59 bitrate= 835.3kbits/s speed=6.26x    frame=10153 fps=188 q=15.0 size=   34568kB time=00:05:38.85 bitrate= 835.7kbits/s speed=6.26x    frame=10248 fps=188 q=15.0 size=   34890kB time=00:05:42.03 bitrate= 835.6kbits/s speed=6.26x    frame=10341 fps=188 q=15.0 size=   35246kB time=00:05:45.11 bitrate= 836.6kbits/s speed=6.26x    frame=10435 fps=188 q=15.0 size=   35550kB time=00:05:48.24 bitrate= 836.3kbits/s speed=6.26x    frame=10527 fps=188 q=15.0 size=   35895kB time=00:05:51.33 bitrate= 837.0kbits/s speed=6.26x    frame=10616 fps=187 q=15.0 size=   36203kB time=00:05:54.30 bitrate= 837.1kbits/s speed=6.26x    frame=10711 fps=187 q=15.0 size=   36509kB time=00:05:57.46 bitrate= 836.7kbits/s speed=6.26x    frame=10790 fps=187 q=15.0 size=   36819kB time=00:06:00.10 bitrate= 837.6kbits/s speed=6.25x    frame=10882 fps=187 q=15.0 size=   37186kB time=00:06:03.17 bitrate= 838.8kbits/s speed=6.25x    frame=10975 fps=187 q=15.0 size=   37487kB time=00:06:06.29 bitrate= 838.4kbits/s speed=6.25x    frame=11074 fps=187 q=15.0 size=   37781kB time=00:06:09.57 bitrate= 837.4kbits/s speed=6.25x    frame=11173 fps=187 q=15.0 size=   38069kB time=00:06:12.86 bitrate= 836.4kbits/s speed=6.25x    frame=11264 fps=187 q=15.0 size=   38404kB time=00:06:15.93 bitrate= 836.9kbits/s speed=6.25x    frame=11360 fps=187 q=15.0 size=   38712kB time=00:06:19.11 bitrate= 836.5kbits/s speed=6.25x    frame=11453 fps=187 q=15.0 size=   39043kB time=00:06:22.24 bitrate= 836.7kbits/s speed=6.25x    frame=11546 fps=187 q=15.0 size=   39343kB time=00:06:25.35 bitrate= 836.4kbits/s speed=6.25x    frame=11629 fps=187 q=15.0 size=   39639kB time=00:06:28.10 bitrate= 836.7kbits/s speed=6.24x    frame=11712 fps=187 q=15.0 size=   39934kB time=00:06:30.88 bitrate= 836.9kbits/s speed=6.24x    frame=11797 fps=187 q=15.0 size=   40254kB time=00:06:33.71 bitrate= 837.6kbits/s speed=6.23x    frame=11885 fps=187 q=15.0 size=   40576kB time=00:06:36.66 bitrate= 838.0kbits/s speed=6.23x    frame=11970 fps=187 q=15.0 size=   40866kB time=00:06:39.50 bitrate= 838.0kbits/s speed=6.23x    frame=12056 fps=186 q=15.0 size=   41208kB time=00:06:42.38 bitrate= 839.0kbits/s speed=6.22x    frame=12143 fps=186 q=15.0 size=   41504kB time=00:06:45.28 bitrate= 838.9kbits/s speed=6.22x    frame=12227 fps=186 q=15.0 size=   41810kB time=00:06:48.05 bitrate= 839.4kbits/s speed=6.21x    frame=12310 fps=186 q=15.0 size=   42112kB time=00:06:50.82 bitrate= 839.7kbits/s speed=6.21x    frame=12395 fps=186 q=15.0 size=   42395kB time=00:06:53.64 bitrate= 839.6kbits/s speed= 6.2x    frame=12486 fps=186 q=15.0 size=   42680kB time=00:06:56.71 bitrate= 839.0kbits/s speed= 6.2x    frame=12589 fps=186 q=15.0 size=   43008kB time=00:07:00.13 bitrate= 838.6kbits/s speed=6.21x    frame=12677 fps=186 q=15.0 size=   43294kB time=00:07:03.07 bitrate= 838.3kbits/s speed=6.21x    frame=12759 fps=186 q=15.0 size=   43633kB time=00:07:05.82 bitrate= 839.4kbits/s speed= 6.2x    frame=12854 fps=186 q=15.0 size=   43990kB time=00:07:09.00 bitrate= 840.0kbits/s speed= 6.2x    frame=12947 fps=186 q=15.0 size=   44262kB time=00:07:12.09 bitrate= 839.1kbits/s speed= 6.2x    frame=13042 fps=186 q=15.0 size=   44618kB time=00:07:15.23 bitrate= 839.8kbits/s speed= 6.2x    frame=13137 fps=186 q=15.0 size=   44913kB time=00:07:18.43 bitrate= 839.2kbits/s speed= 6.2x    frame=13226 fps=186 q=15.0 size=   45207kB time=00:07:21.37 bitrate= 839.0kbits/s speed= 6.2x    frame=13315 fps=186 q=15.0 size=   45515kB time=00:07:24.38 bitrate= 839.0kbits/s speed= 6.2x    frame=13403 fps=186 q=15.0 size=   45804kB time=00:07:27.30 bitrate= 838.9kbits/s speed= 6.2x    frame=13491 fps=186 q=15.0 size=   46092kB time=00:07:30.21 bitrate= 838.7kbits/s speed=6.19x    frame=13580 fps=186 q=15.0 size=   46388kB time=00:07:33.21 bitrate= 838.5kbits/s speed=6.19x    frame=13672 fps=186 q=15.0 size=   46679kB time=00:07:36.29 bitrate= 838.1kbits/s speed=6.19x    frame=13764 fps=186 q=15.0 size=   46981kB time=00:07:39.34 bitrate= 837.9kbits/s speed=6.19x    frame=13852 fps=185 q=15.0 size=   47291kB time=00:07:42.30 bitrate= 838.0kbits/s speed=6.19x    frame=13937 fps=185 q=15.0 size=   47580kB time=00:07:45.14 bitrate= 838.0kbits/s speed=6.19x    frame=14017 fps=185 q=15.0 size=   47880kB time=00:07:47.76 bitrate= 838.5kbits/s speed=6.18x    frame=14113 fps=185 q=15.0 size=   48225kB time=00:07:50.96 bitrate= 838.8kbits/s speed=6.18x    frame=14198 fps=185 q=15.0 size=   48517kB time=00:07:53.84 bitrate= 838.8kbits/s speed=6.18x    frame=14289 fps=185 q=15.0 size=   48826kB time=00:07:56.85 bitrate= 838.8kbits/s speed=6.18x    frame=14314 fps=185 q=-1.0 Lsize=   49066kB time=00:07:57.66 bitrate= 841.5kbits/s speed=6.17x    
video:40975kB audio:7439kB subtitle:0kB other streams:0kB global headers:0kB muxing overhead: 1.346405%
[libx264 @ 0x7fc94200f600] frame I:58    Avg QP: 5.41  size: 20813
[libx264 @ 0x7fc94200f600] frame P:3956  Avg QP: 8.16  size:  6849
[libx264 @ 0x7fc94200f600] frame B:10300 Avg QP:11.50  size:  1326
[libx264 @ 0x7fc94200f600] consecutive B-frames:  3.5%  0.5%  3.1% 92.9%
[libx264 @ 0x7fc94200f600] mb I  I16..4: 14.7% 34.2% 51.1%
[libx264 @ 0x7fc94200f600] mb P  I16..4:  0.7%  6.0%  2.5%  P16..4: 30.9% 27.5% 29.3%  0.0%  0.0%    skip: 3.0%
[libx264 @ 0x7fc94200f600] mb B  I16..4:  1.5%  1.3%  0.1%  B16..8: 26.7% 16.2%  1.8%  direct:19.2%  skip:33.3%  L0:42.5% L1:41.2% BI:16.3%
[libx264 @ 0x7fc94200f600] final ratefactor: 8.88
[libx264 @ 0x7fc94200f600] 8x8 transform intra:53.5% inter:30.7%
[libx264 @ 0x7fc94200f600] coded y,uvDC,uvAC intra: 80.4% 99.5% 99.2% inter: 29.6% 50.5% 37.5%
[libx264 @ 0x7fc94200f600] i16 v,h,dc,p: 37%  7% 40% 16%
[libx264 @ 0x7fc94200f600] i8 v,h,dc,ddl,ddr,vr,hd,vl,hu: 20%  6% 52%  3%  4%  6%  2%  4%  3%
[libx264 @ 0x7fc94200f600] i4 v,h,dc,ddl,ddr,vr,hd,vl,hu: 54%  6% 17%  4%  5%  5%  3%  4%  3%
[libx264 @ 0x7fc94200f600] i8c dc,h,v,p: 68%  6% 19%  7%
[libx264 @ 0x7fc94200f600] Weighted P-Frames: Y:0.0% UV:0.0%
[libx264 @ 0x7fc94200f600] ref P L0: 67.7% 32.3%
[libx264 @ 0x7fc94200f600] ref B L0: 81.4% 18.6%
[libx264 @ 0x7fc94200f600] ref B L1: 94.2%  5.8%
[libx264 @ 0x7fc94200f600] kb/s:702.79
[aac @ 0x7fc942010e00] Qavg: 593.559
2017-02-24 14:47:04
transcode to flv successful
ffmpeg version 3.1.1 Copyright (c) 2000-2016 the FFmpeg developers
  built with Apple LLVM version 7.3.0 (clang-703.0.31)
  configuration: --prefix=/usr/local/Cellar/ffmpeg/3.1.1 --enable-shared --enable-pthreads --enable-gpl --enable-version3 --enable-hardcoded-tables --enable-avresample --cc=clang --host-cflags= --host-ldflags= --enable-opencl --enable-libx264 --enable-libmp3lame --enable-libxvid --enable-libfreetype --enable-libvorbis --enable-libvpx --enable-libass --enable-ffplay --enable-libfdk-aac --enable-libopus --enable-libx265 --disable-lzma --enable-nonfree --enable-vda
  libavutil      55. 28.100 / 55. 28.100
  libavcodec     57. 48.101 / 57. 48.101
  libavformat    57. 41.100 / 57. 41.100
  libavdevice    57.  0.101 / 57.  0.101
  libavfilter     6. 47.100 /  6. 47.100
  libavresample   3.  0.  0 /  3.  0.  0
  libswscale      4.  1.100 /  4.  1.100
  libswresample   2.  1.100 /  2.  1.100
  libpostproc    54.  0.100 / 54.  0.100
Input #0, mov,mp4,m4a,3gp,3g2,mj2, from 'S2016_001_AEWVJA_006_STO_007.mov':
  Metadata:
    major_brand     : qt  
    minor_version   : 512
    compatible_brands: qt  
    encoder         : Lavf57.41.100
  Duration: 00:07:57.67, start: 0.000000, bitrate: 10169 kb/s
    Stream #0:0(eng): Video: h264 (Main) (avc1 / 0x31637661), yuv420p(tv, bt709), 1920x1080, 10035 kb/s, 29.97 fps, 29.97 tbr, 30k tbn, 60k tbc (default)
    Metadata:
      handler_name    : DataHandler
      encoder         : H.264
      timecode        : 00:00:00:00
    Stream #0:1(eng): Audio: aac (LC) (mp4a / 0x6134706D), 48000 Hz, stereo, fltp, 128 kb/s (default)
    Metadata:
      handler_name    : DataHandler
    Stream #0:2(eng): Data: none (tmcd / 0x64636D74)
    Metadata:
      handler_name    : DataHandler
      timecode        : 00:00:00:00
[dvd @ 0x7fe22b819a00] Using AVStream.codec to pass codec parameters to muxers is deprecated, use AVStream.codecpar instead.
    Last message repeated 1 times
Output #0, dvd, to 'S2016_001_AEWVJA_006_STO_007.mpeg':
  Metadata:
    major_brand     : qt  
    minor_version   : 512
    compatible_brands: qt  
    encoder         : Lavf57.41.100
    Stream #0:0(eng): Video: mpeg2video (Main) (xvid / 0x64697678), yuv420p, 720x480, q=2-31, 5000 kb/s, 29.97 fps, 90k tbn, 29.97 tbc (default)
    Metadata:
      handler_name    : DataHandler
      timecode        : 00:00:00:00
      encoder         : Lavc57.48.101 mpeg2video
    Side data:
      cpb: bitrate max/min/avg: 9000000/0/5000000 buffer size: 1835008 vbv_delay: -1
    Stream #0:1(eng): Audio: ac3, 48000 Hz, stereo, fltp, 448 kb/s (default)
    Metadata:
      handler_name    : DataHandler
      encoder         : Lavc57.48.101 ac3
Stream mapping:
  Stream #0:0 -> #0:0 (h264 (native) -> mpeg2video (native))
  Stream #0:1 -> #0:1 (aac (native) -> ac3 (native))
Press [q] to stop, [?] for help
frame=   89 fps=0.0 q=2.0 size=     790kB time=00:00:03.06 bitrate=2110.3kbits/s speed=6.11x    frame=  185 fps=184 q=2.0 size=    1610kB time=00:00:06.29 bitrate=2094.0kbits/s speed=6.26x    frame=  279 fps=185 q=2.0 size=    2396kB time=00:00:09.43 bitrate=2080.4kbits/s speed=6.26x    frame=  373 fps=186 q=2.0 size=    3236kB time=00:00:12.57 bitrate=2108.8kbits/s speed=6.26x    frame=  472 fps=188 q=2.0 size=    4122kB time=00:00:15.83 bitrate=2132.5kbits/s speed=6.32x    frame=  570 fps=189 q=2.0 size=    5006kB time=00:00:19.13 bitrate=2143.6kbits/s speed=6.35x    frame=  666 fps=189 q=2.0 size=    5876kB time=00:00:22.33 bitrate=2155.6kbits/s speed=6.35x    frame=  762 fps=190 q=2.0 size=    6722kB time=00:00:25.53 bitrate=2156.9kbits/s speed=6.36x    frame=  859 fps=190 q=2.0 size=    7582kB time=00:00:28.79 bitrate=2157.1kbits/s speed=6.37x    frame=  956 fps=190 q=1.6 size=    8480kB time=00:00:31.99 bitrate=2171.2kbits/s speed=6.37x    frame= 1051 fps=190 q=2.0 size=    9326kB time=00:00:35.19 bitrate=2170.7kbits/s speed=6.37x    frame= 1146 fps=190 q=2.0 size=   10176kB time=00:00:38.36 bitrate=2173.0kbits/s speed=6.36x    frame= 1242 fps=190 q=2.0 size=   11056kB time=00:00:41.56 bitrate=2179.1kbits/s speed=6.36x    frame= 1338 fps=190 q=2.0 size=   11968kB time=00:00:44.76 bitrate=2190.3kbits/s speed=6.36x    frame= 1433 fps=190 q=2.0 size=   12870kB time=00:00:47.93 bitrate=2199.7kbits/s speed=6.36x    frame= 1529 fps=190 q=2.0 size=   13718kB time=00:00:51.13 bitrate=2197.9kbits/s speed=6.36x    frame= 1625 fps=190 q=2.0 size=   14596kB time=00:00:54.33 bitrate=2200.8kbits/s speed=6.36x    frame= 1723 fps=191 q=2.0 size=   15370kB time=00:00:57.59 bitrate=2186.2kbits/s speed=6.37x    frame= 1820 fps=191 q=1.6 size=   16318kB time=00:01:00.85 bitrate=2196.5kbits/s speed=6.38x    frame= 1903 fps=189 q=2.0 size=   17072kB time=00:01:03.61 bitrate=2198.6kbits/s speed=6.33x    frame= 2001 fps=190 q=2.0 size=   17944kB time=00:01:06.87 bitrate=2198.1kbits/s speed=6.34x    frame= 2098 fps=190 q=2.0 size=   18828kB time=00:01:10.13 bitrate=2199.1kbits/s speed=6.35x    frame= 2195 fps=190 q=2.0 size=   19682kB time=00:01:13.33 bitrate=2198.5kbits/s speed=6.35x    frame= 2292 fps=190 q=2.0 size=   20550kB time=00:01:16.60 bitrate=2197.6kbits/s speed=6.35x    frame= 2391 fps=190 q=2.0 size=   21488kB time=00:01:19.89 bitrate=2203.2kbits/s speed=6.36x    frame= 2487 fps=190 q=2.0 size=   22410kB time=00:01:23.09 bitrate=2209.2kbits/s speed=6.36x    frame= 2584 fps=190 q=2.0 size=   23310kB time=00:01:26.33 bitrate=2211.9kbits/s speed=6.36x    frame= 2681 fps=191 q=2.0 size=   24276kB time=00:01:29.56 bitrate=2220.4kbits/s speed=6.37x    frame= 2777 fps=191 q=2.0 size=   25178kB time=00:01:32.79 bitrate=2222.7kbits/s speed=6.37x    frame= 2872 fps=191 q=2.0 size=   26070kB time=00:01:35.93 bitrate=2226.2kbits/s speed=6.36x    frame= 2968 fps=191 q=2.0 size=   26924kB time=00:01:39.13 bitrate=2225.0kbits/s speed=6.36x    frame= 3065 fps=191 q=2.0 size=   27814kB time=00:01:42.39 bitrate=2225.2kbits/s speed=6.37x    frame= 3161 fps=191 q=2.0 size=   28672kB time=00:01:45.59 bitrate=2224.4kbits/s speed=6.37x    frame= 3258 fps=191 q=2.0 size=   29574kB time=00:01:48.82 bitrate=2226.2kbits/s speed=6.37x    frame= 3356 fps=191 q=2.0 size=   30506kB time=00:01:52.09 bitrate=2229.5kbits/s speed=6.37x    frame= 3452 fps=191 q=2.0 size=   31392kB time=00:01:55.32 bitrate=2229.9kbits/s speed=6.38x    frame= 3548 fps=191 q=1.6 size=   32270kB time=00:01:58.49 bitrate=2231.0kbits/s speed=6.37x    frame= 3645 fps=191 q=2.0 size=   33204kB time=00:02:01.72 bitrate=2234.6kbits/s speed=6.38x    frame= 3740 fps=191 q=2.0 size=   34098kB time=00:02:04.92 bitrate=2236.0kbits/s speed=6.37x    frame= 3834 fps=191 q=2.0 size=   35000kB time=00:02:08.05 bitrate=2239.0kbits/s speed=6.37x    frame= 3931 fps=191 q=2.0 size=   35918kB time=00:02:11.29 bitrate=2241.1kbits/s speed=6.37x    frame= 4027 fps=191 q=2.0 size=   36798kB time=00:02:14.49 bitrate=2241.4kbits/s speed=6.37x    frame= 4124 fps=191 q=1.6 size=   37702kB time=00:02:17.72 bitrate=2242.6kbits/s speed=6.37x    frame= 4221 fps=191 q=2.0 size=   38580kB time=00:02:20.98 bitrate=2241.7kbits/s speed=6.38x    frame= 4319 fps=191 q=2.0 size=   39468kB time=00:02:24.21 bitrate=2241.9kbits/s speed=6.38x    frame= 4416 fps=191 q=2.0 size=   40470kB time=00:02:27.45 bitrate=2248.4kbits/s speed=6.38x    frame= 4512 fps=191 q=2.0 size=   41364kB time=00:02:30.65 bitrate=2249.3kbits/s speed=6.38x    frame= 4609 fps=191 q=2.0 size=   42284kB time=00:02:33.91 bitrate=2250.5kbits/s speed=6.38x    frame= 4705 fps=191 q=2.0 size=   43214kB time=00:02:37.11 bitrate=2253.2kbits/s speed=6.38x    frame= 4801 fps=191 q=2.0 size=   44046kB time=00:02:40.31 bitrate=2250.7kbits/s speed=6.38x    frame= 4897 fps=191 q=2.0 size=   44948kB time=00:02:43.51 bitrate=2251.9kbits/s speed=6.38x    frame= 4994 fps=191 q=2.0 size=   45882kB time=00:02:46.74 bitrate=2254.1kbits/s speed=6.38x    frame= 5087 fps=191 q=2.0 size=   46864kB time=00:02:49.85 bitrate=2260.3kbits/s speed=6.38x    frame= 5183 fps=191 q=2.0 size=   47784kB time=00:02:53.05 bitrate=2262.0kbits/s speed=6.38x    frame= 5279 fps=191 q=2.0 size=   48706kB time=00:02:56.25 bitrate=2263.8kbits/s speed=6.38x    frame= 5375 fps=191 q=2.0 size=   49572kB time=00:02:59.45 bitrate=2263.0kbits/s speed=6.38x    frame= 5471 fps=191 q=2.0 size=   50446kB time=00:03:02.65 bitrate=2262.5kbits/s speed=6.38x    frame= 5567 fps=191 q=2.0 size=   51344kB time=00:03:05.85 bitrate=2263.2kbits/s speed=6.38x    frame= 5664 fps=191 q=2.0 size=   52180kB time=00:03:09.11 bitrate=2260.3kbits/s speed=6.38x    frame= 5760 fps=191 q=2.0 size=   53062kB time=00:03:12.31 bitrate=2260.3kbits/s speed=6.38x    frame= 5857 fps=191 q=2.0 size=   53946kB time=00:03:15.54 bitrate=2259.9kbits/s speed=6.38x    frame= 5952 fps=191 q=2.0 size=   54846kB time=00:03:18.71 bitrate=2261.0kbits/s speed=6.38x    frame= 6050 fps=191 q=1.6 size=   55768kB time=00:03:21.97 bitrate=2261.9kbits/s speed=6.38x    frame= 6147 fps=191 q=2.0 size=   56662kB time=00:03:25.21 bitrate=2261.9kbits/s speed=6.38x    frame= 6244 fps=191 q=2.0 size=   57508kB time=00:03:28.44 bitrate=2260.1kbits/s speed=6.38x    frame= 6340 fps=191 q=2.0 size=   58408kB time=00:03:31.64 bitrate=2260.8kbits/s speed=6.38x    frame= 6436 fps=191 q=2.0 size=   59358kB time=00:03:34.84 bitrate=2263.3kbits/s speed=6.38x    frame= 6532 fps=191 q=2.0 size=   60292kB time=00:03:38.07 bitrate=2264.9kbits/s speed=6.38x    frame= 6627 fps=191 q=2.0 size=   61180kB time=00:03:41.24 bitrate=2265.3kbits/s speed=6.38x    frame= 6723 fps=191 q=2.0 size=   62042kB time=00:03:44.44 bitrate=2264.5kbits/s speed=6.38x    frame= 6820 fps=191 q=2.0 size=   62848kB time=00:03:47.67 bitrate=2261.3kbits/s speed=6.38x    frame= 6918 fps=191 q=2.0 size=   63760kB time=00:03:50.93 bitrate=2261.7kbits/s speed=6.38x    frame= 7015 fps=191 q=2.0 size=   64652kB time=00:03:54.17 bitrate=2261.7kbits/s speed=6.38x    frame= 7110 fps=191 q=2.0 size=   65534kB time=00:03:57.37 bitrate=2261.7kbits/s speed=6.38x    frame= 7207 fps=191 q=2.0 size=   66520kB time=00:04:00.57 bitrate=2265.2kbits/s speed=6.38x    frame= 7305 fps=191 q=2.0 size=   67416kB time=00:04:03.86 bitrate=2264.6kbits/s speed=6.39x    frame= 7402 fps=191 q=2.0 size=   68314kB time=00:04:07.09 bitrate=2264.8kbits/s speed=6.39x    frame= 7499 fps=191 q=2.0 size=   69180kB time=00:04:10.33 bitrate=2263.9kbits/s speed=6.39x    frame= 7596 fps=191 q=2.0 size=   70086kB time=00:04:13.56 bitrate=2264.3kbits/s speed=6.39x    frame= 7668 fps=191 q=2.0 size=   70736kB time=00:04:15.96 bitrate=2263.9kbits/s speed=6.37x    frame= 7765 fps=191 q=2.0 size=   71640kB time=00:04:19.19 bitrate=2264.2kbits/s speed=6.37x    frame= 7860 fps=191 q=2.0 size=   72478kB time=00:04:22.39 bitrate=2262.8kbits/s speed=6.37x    frame= 7957 fps=191 q=2.0 size=   73388kB time=00:04:25.59 bitrate=2263.6kbits/s speed=6.37x    frame= 8054 fps=191 q=2.0 size=   74252kB time=00:04:28.85 bitrate=2262.4kbits/s speed=6.37x    frame= 8152 fps=191 q=2.0 size=   75142kB time=00:04:32.12 bitrate=2262.1kbits/s speed=6.37x    frame= 8248 fps=191 q=2.0 size=   76022kB time=00:04:35.32 bitrate=2262.0kbits/s speed=6.37x    frame= 8345 fps=191 q=2.0 size=   76880kB time=00:04:38.55 bitrate=2261.0kbits/s speed=6.37x    frame= 8442 fps=191 q=2.0 size=   77760kB time=00:04:41.78 bitrate=2260.6kbits/s speed=6.37x    frame= 8540 fps=191 q=2.0 size=   78686kB time=00:04:45.05 bitrate=2261.3kbits/s speed=6.38x    frame= 8636 fps=191 q=2.0 size=   79596kB time=00:04:48.25 bitrate=2262.1kbits/s speed=6.38x    frame= 8732 fps=191 q=1.6 size=   80594kB time=00:04:51.48 bitrate=2265.1kbits/s speed=6.38x    frame= 8827 fps=191 q=2.0 size=   81514kB time=00:04:54.65 bitrate=2266.3kbits/s speed=6.37x    frame= 8924 fps=191 q=2.0 size=   82424kB time=00:04:57.88 bitrate=2266.7kbits/s speed=6.38x    frame= 9019 fps=191 q=2.0 size=   83316kB time=00:05:01.05 bitrate=2267.1kbits/s speed=6.38x    frame= 9116 fps=191 q=2.0 size=   84244kB time=00:05:04.28 bitrate=2268.0kbits/s speed=6.38x    frame= 9213 fps=191 q=2.0 size=   85104kB time=00:05:07.51 bitrate=2267.1kbits/s speed=6.38x    frame= 9308 fps=191 q=1.6 size=   86008kB time=00:05:10.68 bitrate=2267.8kbits/s speed=6.38x    frame= 9406 fps=191 q=2.0 size=   86920kB time=00:05:13.97 bitrate=2267.8kbits/s speed=6.38x    frame= 9501 fps=191 q=2.0 size=   87806kB time=00:05:17.11 bitrate=2268.3kbits/s speed=6.38x    frame= 9598 fps=191 q=2.0 size=   88706kB time=00:05:20.37 bitrate=2268.2kbits/s speed=6.38x    frame= 9694 fps=191 q=2.0 size=   89544kB time=00:05:23.57 bitrate=2267.0kbits/s speed=6.38x    frame= 9791 fps=191 q=2.0 size=   90482kB time=00:05:26.81 bitrate=2268.1kbits/s speed=6.38x    frame= 9888 fps=191 q=2.0 size=   91388kB time=00:05:30.04 bitrate=2268.3kbits/s speed=6.38x    frame= 9983 fps=191 q=2.0 size=   92220kB time=00:05:33.21 bitrate=2267.2kbits/s speed=6.38x    frame=10080 fps=191 q=2.0 size=   93144kB time=00:05:36.44 bitrate=2268.0kbits/s speed=6.38x    frame=10176 fps=191 q=2.0 size=   94056kB time=00:05:39.64 bitrate=2268.6kbits/s speed=6.38x    frame=10273 fps=191 q=2.0 size=   94934kB time=00:05:42.90 bitrate=2268.0kbits/s speed=6.38x    frame=10364 fps=191 q=2.0 size=   95762kB time=00:05:45.91 bitrate=2267.8kbits/s speed=6.38x    frame=10460 fps=191 q=1.6 size=   96706kB time=00:05:49.11 bitrate=2269.2kbits/s speed=6.38x    frame=10556 fps=191 q=2.0 size=   97604kB time=00:05:52.31 bitrate=2269.5kbits/s speed=6.38x    frame=10652 fps=191 q=2.0 size=   98504kB time=00:05:55.54 bitrate=2269.6kbits/s speed=6.38x    frame=10746 fps=191 q=2.0 size=   99488kB time=00:05:58.68 bitrate=2272.2kbits/s speed=6.37x    frame=10839 fps=191 q=2.0 size=  100484kB time=00:06:01.78 bitrate=2275.3kbits/s speed=6.37x    frame=10934 fps=191 q=2.0 size=  101366kB time=00:06:04.95 bitrate=2275.3kbits/s speed=6.37x    frame=11030 fps=191 q=2.0 size=  102134kB time=00:06:08.15 bitrate=2272.6kbits/s speed=6.37x    frame=11126 fps=191 q=1.6 size=  102972kB time=00:06:11.35 bitrate=2271.5kbits/s speed=6.37x    frame=11223 fps=191 q=2.0 size=  103898kB time=00:06:14.58 bitrate=2272.2kbits/s speed=6.37x    frame=11320 fps=191 q=2.0 size=  104724kB time=00:06:17.81 bitrate=2270.7kbits/s speed=6.37x    frame=11413 fps=191 q=2.0 size=  105618kB time=00:06:20.93 bitrate=2271.3kbits/s speed=6.37x    frame=11507 fps=191 q=2.0 size=  106700kB time=00:06:24.07 bitrate=2275.8kbits/s speed=6.37x    frame=11600 fps=191 q=2.0 size=  107756kB time=00:06:27.17 bitrate=2279.9kbits/s speed=6.37x    frame=11693 fps=191 q=2.0 size=  108848kB time=00:06:30.27 bitrate=2284.7kbits/s speed=6.37x    frame=11783 fps=191 q=2.0 size=  109862kB time=00:06:33.28 bitrate=2288.4kbits/s speed=6.37x    frame=11876 fps=191 q=2.0 size=  110922kB time=00:06:36.35 bitrate=2292.6kbits/s speed=6.36x    frame=11966 fps=191 q=2.0 size=  111920kB time=00:06:39.36 bitrate=2295.8kbits/s speed=6.36x    frame=12058 fps=191 q=2.0 size=  112984kB time=00:06:42.43 bitrate=2299.9kbits/s speed=6.36x    frame=12150 fps=190 q=2.0 size=  114052kB time=00:06:45.51 bitrate=2304.0kbits/s speed=6.36x    frame=12244 fps=190 q=2.0 size=  115166kB time=00:06:48.64 bitrate=2308.7kbits/s speed=6.36x    frame=12337 fps=190 q=2.0 size=  116212kB time=00:06:51.75 bitrate=2312.1kbits/s speed=6.35x    frame=12430 fps=190 q=2.0 size=  117232kB time=00:06:54.85 bitrate=2314.9kbits/s speed=6.35x    frame=12526 fps=190 q=2.0 size=  118322kB time=00:06:58.05 bitrate=2318.6kbits/s speed=6.35x    frame=12619 fps=190 q=2.0 size=  119386kB time=00:07:01.19 bitrate=2322.0kbits/s speed=6.35x    frame=12710 fps=190 q=1.6 size=  120418kB time=00:07:04.19 bitrate=2325.5kbits/s speed=6.35x    frame=12803 fps=190 q=2.0 size=  121372kB time=00:07:07.30 bitrate=2326.9kbits/s speed=6.35x    frame=12895 fps=190 q=2.0 size=  122348kB time=00:07:10.37 bitrate=2328.8kbits/s speed=6.35x    frame=12987 fps=190 q=2.0 size=  123400kB time=00:07:13.44 bitrate=2332.2kbits/s speed=6.34x    frame=13077 fps=190 q=2.0 size=  124446kB time=00:07:16.45 bitrate=2335.8kbits/s speed=6.34x    frame=13168 fps=190 q=2.0 size=  125502kB time=00:07:19.49 bitrate=2339.3kbits/s speed=6.34x    frame=13261 fps=190 q=2.0 size=  126592kB time=00:07:22.59 bitrate=2343.1kbits/s speed=6.34x    frame=13342 fps=190 q=2.0 size=  127554kB time=00:07:25.28 bitrate=2346.6kbits/s speed=6.33x    frame=13435 fps=190 q=2.0 size=  128628kB time=00:07:28.39 bitrate=2350.0kbits/s speed=6.33x    frame=13528 fps=190 q=2.0 size=  129690kB time=00:07:31.49 bitrate=2353.1kbits/s speed=6.33x    frame=13621 fps=190 q=2.0 size=  130782kB time=00:07:34.59 bitrate=2356.7kbits/s speed=6.33x    frame=13715 fps=190 q=2.0 size=  131920kB time=00:07:37.73 bitrate=2360.9kbits/s speed=6.33x    frame=13806 fps=190 q=2.0 size=  132988kB time=00:07:40.77 bitrate=2364.4kbits/s speed=6.33x    frame=13897 fps=189 q=2.0 size=  134030kB time=00:07:43.81 bitrate=2367.3kbits/s speed=6.32x    frame=13988 fps=189 q=1.6 size=  135104kB time=00:07:46.85 bitrate=2370.7kbits/s speed=6.32x    frame=14080 fps=189 q=2.0 size=  136160kB time=00:07:49.92 bitrate=2373.6kbits/s speed=6.32x    frame=14172 fps=189 q=2.0 size=  137220kB time=00:07:52.99 bitrate=2376.6kbits/s speed=6.32x    frame=14265 fps=189 q=2.0 size=  138226kB time=00:07:56.10 bitrate=2378.4kbits/s speed=6.32x    frame=14314 fps=189 q=1.6 Lsize=  138842kB time=00:07:57.67 bitrate=2381.1kbits/s speed=6.32x    
video:108470kB audio:26126kB subtitle:0kB other streams:0kB global headers:0kB muxing overhead: 3.154936%
2017-02-24 14:48:20
transcode to mpeg successful
ffmpeg version 3.1.1 Copyright (c) 2000-2016 the FFmpeg developers
  built with Apple LLVM version 7.3.0 (clang-703.0.31)
  configuration: --prefix=/usr/local/Cellar/ffmpeg/3.1.1 --enable-shared --enable-pthreads --enable-gpl --enable-version3 --enable-hardcoded-tables --enable-avresample --cc=clang --host-cflags= --host-ldflags= --enable-opencl --enable-libx264 --enable-libmp3lame --enable-libxvid --enable-libfreetype --enable-libvorbis --enable-libvpx --enable-libass --enable-ffplay --enable-libfdk-aac --enable-libopus --enable-libx265 --disable-lzma --enable-nonfree --enable-vda
  libavutil      55. 28.100 / 55. 28.100
  libavcodec     57. 48.101 / 57. 48.101
  libavformat    57. 41.100 / 57. 41.100
  libavdevice    57.  0.101 / 57.  0.101
  libavfilter     6. 47.100 /  6. 47.100
  libavresample   3.  0.  0 /  3.  0.  0
  libswscale      4.  1.100 /  4.  1.100
  libswresample   2.  1.100 /  2.  1.100
  libpostproc    54.  0.100 / 54.  0.100
Input #0, mov,mp4,m4a,3gp,3g2,mj2, from 'S2016_001_AEWVJA_006_STO_007.mov':
  Metadata:
    major_brand     : qt  
    minor_version   : 512
    compatible_brands: qt  
    encoder         : Lavf57.41.100
  Duration: 00:07:57.67, start: 0.000000, bitrate: 10169 kb/s
    Stream #0:0(eng): Video: h264 (Main) (avc1 / 0x31637661), yuv420p(tv, bt709), 1920x1080, 10035 kb/s, 29.97 fps, 29.97 tbr, 30k tbn, 60k tbc (default)
    Metadata:
      handler_name    : DataHandler
      encoder         : H.264
      timecode        : 00:00:00:00
    Stream #0:1(eng): Audio: aac (LC) (mp4a / 0x6134706D), 48000 Hz, stereo, fltp, 128 kb/s (default)
    Metadata:
      handler_name    : DataHandler
    Stream #0:2(eng): Data: none (tmcd / 0x64636D74)
    Metadata:
      handler_name    : DataHandler
      timecode        : 00:00:00:00
[mp4 @ 0x7f87bd00c600] Using AVStream.codec to pass codec parameters to muxers is deprecated, use AVStream.codecpar instead.
    Last message repeated 1 times
Output #0, mp4, to 'S2016_001_AEWVJA_006_STO_007.mp4':
  Metadata:
    major_brand     : qt  
    minor_version   : 512
    compatible_brands: qt  
    encoder         : Lavf57.41.100
    Stream #0:0(eng): Video: mpeg4 ( [0][0][0] / 0x0020), yuv420p, 420x270, q=2-31, 372 kb/s, 0.03 fps, 11988 tbn, 29.97 tbc (default)
    Metadata:
      handler_name    : DataHandler
      timecode        : 00:00:00:00
      encoder         : Lavc57.48.101 mpeg4
    Side data:
      cpb: bitrate max/min/avg: 0/0/372000 buffer size: 0 vbv_delay: -1
    Stream #0:1(eng): Audio: aac (LC) ([64][0][0][0] / 0x0040), 44100 Hz, stereo, fltp, 128 kb/s (default)
    Metadata:
      handler_name    : DataHandler
      encoder         : Lavc57.48.101 aac
Stream mapping:
  Stream #0:0 -> #0:0 (h264 (native) -> mpeg4 (native))
  Stream #0:1 -> #0:1 (aac (native) -> aac (native))
Press [q] to stop, [?] for help
frame=  100 fps=0.0 q=2.3 size=     284kB time=00:00:03.39 bitrate= 687.1kbits/s speed=6.72x    frame=  197 fps=196 q=2.3 size=     510kB time=00:00:06.61 bitrate= 631.7kbits/s speed=6.59x    frame=  287 fps=191 q=2.5 size=     717kB time=00:00:09.65 bitrate= 608.0kbits/s speed=6.42x    frame=  386 fps=192 q=2.9 size=     946kB time=00:00:12.95 bitrate= 597.8kbits/s speed=6.45x    frame=  485 fps=193 q=3.2 size=    1157kB time=00:00:16.25 bitrate= 582.9kbits/s speed=6.47x    frame=  582 fps=193 q=3.7 size=    1362kB time=00:00:19.48 bitrate= 572.8kbits/s speed=6.47x    frame=  684 fps=195 q=3.5 size=    1570kB time=00:00:22.87 bitrate= 562.4kbits/s speed=6.51x    frame=  775 fps=193 q=3.1 size=    1757kB time=00:00:25.93 bitrate= 554.9kbits/s speed=6.46x    frame=  875 fps=194 q=3.2 size=    1965kB time=00:00:29.25 bitrate= 550.2kbits/s speed=6.48x    frame=  978 fps=195 q=3.4 size=    2180kB time=00:00:32.71 bitrate= 545.9kbits/s speed=6.52x    frame= 1081 fps=196 q=2.9 size=    2392kB time=00:00:36.15 bitrate= 542.0kbits/s speed=6.55x    frame= 1179 fps=196 q=3.7 size=    2594kB time=00:00:39.40 bitrate= 539.3kbits/s speed=6.54x    frame= 1278 fps=196 q=3.7 size=    2796kB time=00:00:42.72 bitrate= 536.0kbits/s speed=6.55x    frame= 1384 fps=197 q=3.7 size=    3009kB time=00:00:46.25 bitrate= 532.9kbits/s speed=6.58x    frame= 1482 fps=197 q=3.3 size=    3209kB time=00:00:49.52 bitrate= 530.7kbits/s speed=6.58x    frame= 1585 fps=197 q=2.5 size=    3424kB time=00:00:52.96 bitrate= 529.6kbits/s speed= 6.6x    frame= 1688 fps=198 q=2.8 size=    3624kB time=00:00:56.37 bitrate= 526.6kbits/s speed=6.61x    frame= 1793 fps=198 q=3.4 size=    3846kB time=00:00:59.90 bitrate= 526.0kbits/s speed=6.63x    frame= 1895 fps=199 q=4.0 size=    4052kB time=00:01:03.29 bitrate= 524.4kbits/s speed=6.64x    frame= 1998 fps=199 q=3.8 size=    4265kB time=00:01:06.73 bitrate= 523.6kbits/s speed=6.65x    frame= 2094 fps=199 q=3.3 size=    4458kB time=00:01:09.93 bitrate= 522.2kbits/s speed=6.64x    frame= 2196 fps=199 q=3.5 size=    4663kB time=00:01:13.32 bitrate= 520.9kbits/s speed=6.64x    frame= 2296 fps=199 q=3.5 size=    4868kB time=00:01:16.67 bitrate= 520.1kbits/s speed=6.64x    frame= 2401 fps=199 q=3.2 size=    5086kB time=00:01:20.20 bitrate= 519.5kbits/s speed=6.66x    frame= 2509 fps=200 q=3.6 size=    5305kB time=00:01:23.77 bitrate= 518.8kbits/s speed=6.68x    frame= 2609 fps=200 q=3.7 size=    5506kB time=00:01:27.12 bitrate= 517.7kbits/s speed=6.68x    frame= 2709 fps=200 q=3.7 size=    5707kB time=00:01:30.46 bitrate= 516.8kbits/s speed=6.68x    frame= 2811 fps=200 q=3.8 size=    5914kB time=00:01:33.87 bitrate= 516.1kbits/s speed=6.68x    frame= 2909 fps=200 q=4.0 size=    6112kB time=00:01:37.15 bitrate= 515.4kbits/s speed=6.68x    frame= 3012 fps=200 q=3.6 size=    6317kB time=00:01:40.56 bitrate= 514.6kbits/s speed=6.68x    frame= 3120 fps=201 q=3.8 size=    6534kB time=00:01:44.16 bitrate= 513.8kbits/s speed=6.69x    frame= 3222 fps=201 q=3.9 size=    6746kB time=00:01:47.57 bitrate= 513.7kbits/s speed= 6.7x    frame= 3321 fps=201 q=4.0 size=    6948kB time=00:01:50.89 bitrate= 513.2kbits/s speed= 6.7x    frame= 3425 fps=201 q=3.8 size=    7165kB time=00:01:54.33 bitrate= 513.4kbits/s speed= 6.7x    frame= 3530 fps=201 q=3.5 size=    7375kB time=00:01:57.86 bitrate= 512.6kbits/s speed=6.71x    frame= 3630 fps=201 q=3.6 size=    7584kB time=00:02:01.20 bitrate= 512.6kbits/s speed=6.71x    frame= 3735 fps=201 q=3.4 size=    7797kB time=00:02:04.69 bitrate= 512.2kbits/s speed=6.72x    frame= 3833 fps=201 q=4.3 size=    7996kB time=00:02:07.96 bitrate= 511.9kbits/s speed=6.71x    frame= 3941 fps=201 q=4.0 size=    8214kB time=00:02:11.56 bitrate= 511.5kbits/s speed=6.72x    frame= 4047 fps=202 q=3.5 size=    8427kB time=00:02:15.11 bitrate= 510.9kbits/s speed=6.73x    frame= 4150 fps=202 q=3.6 size=    8627kB time=00:02:18.55 bitrate= 510.1kbits/s speed=6.73x    frame= 4258 fps=202 q=3.4 size=    8848kB time=00:02:22.15 bitrate= 509.9kbits/s speed=6.74x    frame= 4363 fps=202 q=3.8 size=    9066kB time=00:02:25.65 bitrate= 509.9kbits/s speed=6.75x    frame= 4462 fps=202 q=3.8 size=    9274kB time=00:02:28.95 bitrate= 510.0kbits/s speed=6.74x    frame= 4568 fps=202 q=3.6 size=    9489kB time=00:02:32.48 bitrate= 509.8kbits/s speed=6.75x    frame= 4664 fps=202 q=3.6 size=    9684kB time=00:02:35.68 bitrate= 509.6kbits/s speed=6.74x    frame= 4764 fps=202 q=2.9 size=    9884kB time=00:02:39.05 bitrate= 509.0kbits/s speed=6.74x    frame= 4863 fps=202 q=3.5 size=   10093kB time=00:02:42.33 bitrate= 509.4kbits/s speed=6.74x    frame= 4957 fps=202 q=2.8 size=   10284kB time=00:02:45.48 bitrate= 509.1kbits/s speed=6.73x    frame= 5059 fps=202 q=4.9 size=   10494kB time=00:02:48.85 bitrate= 509.1kbits/s speed=6.73x    frame= 5160 fps=202 q=3.5 size=   10692kB time=00:02:52.24 bitrate= 508.5kbits/s speed=6.73x    frame= 5260 fps=202 q=3.1 size=   10897kB time=00:02:55.58 bitrate= 508.4kbits/s speed=6.73x    frame= 5356 fps=201 q=3.7 size=   11089kB time=00:02:58.77 bitrate= 508.2kbits/s speed=6.72x    frame= 5458 fps=201 q=3.1 size=   11290kB time=00:03:02.18 bitrate= 507.6kbits/s speed=6.72x    frame= 5564 fps=202 q=3.4 size=   11511kB time=00:03:05.71 bitrate= 507.8kbits/s speed=6.73x    frame= 5664 fps=202 q=3.2 size=   11709kB time=00:03:09.05 bitrate= 507.4kbits/s speed=6.73x    frame= 5763 fps=201 q=3.5 size=   11917kB time=00:03:12.37 bitrate= 507.5kbits/s speed=6.73x    frame= 5871 fps=202 q=4.0 size=   12141kB time=00:03:15.97 bitrate= 507.5kbits/s speed=6.73x    frame= 5978 fps=202 q=4.4 size=   12359kB time=00:03:19.50 bitrate= 507.5kbits/s speed=6.74x    frame= 6079 fps=202 q=3.8 size=   12559kB time=00:03:22.89 bitrate= 507.1kbits/s speed=6.74x    frame= 6183 fps=202 q=3.3 size=   12773kB time=00:03:26.37 bitrate= 507.0kbits/s speed=6.74x    frame= 6281 fps=202 q=3.7 size=   12969kB time=00:03:29.65 bitrate= 506.7kbits/s speed=6.74x    frame= 6386 fps=202 q=3.9 size=   13186kB time=00:03:33.13 bitrate= 506.8kbits/s speed=6.74x    frame= 6484 fps=202 q=4.1 size=   13391kB time=00:03:36.43 bitrate= 506.9kbits/s speed=6.74x    frame= 6579 fps=202 q=3.8 size=   13587kB time=00:03:39.59 bitrate= 506.9kbits/s speed=6.73x    frame= 6686 fps=202 q=3.8 size=   13799kB time=00:03:43.16 bitrate= 506.5kbits/s speed=6.74x    frame= 6791 fps=202 q=3.1 size=   14004kB time=00:03:46.64 bitrate= 506.1kbits/s speed=6.74x    frame= 6891 fps=202 q=3.6 size=   14209kB time=00:03:49.99 bitrate= 506.1kbits/s speed=6.74x    frame= 6989 fps=202 q=3.5 size=   14413kB time=00:03:53.26 bitrate= 506.1kbits/s speed=6.74x    frame= 7090 fps=202 q=3.2 size=   14616kB time=00:03:56.63 bitrate= 506.0kbits/s speed=6.74x    frame= 7194 fps=202 q=3.4 size=   14835kB time=00:04:00.11 bitrate= 506.1kbits/s speed=6.74x    frame= 7298 fps=202 q=4.2 size=   15045kB time=00:04:03.60 bitrate= 506.0kbits/s speed=6.74x    frame= 7398 fps=202 q=3.2 size=   15245kB time=00:04:06.94 bitrate= 505.7kbits/s speed=6.74x    frame= 7499 fps=202 q=3.8 size=   15445kB time=00:04:10.28 bitrate= 505.5kbits/s speed=6.74x    frame= 7605 fps=202 q=3.9 size=   15660kB time=00:04:13.81 bitrate= 505.4kbits/s speed=6.74x    frame= 7704 fps=202 q=3.2 size=   15859kB time=00:04:17.13 bitrate= 505.2kbits/s speed=6.74x    frame= 7807 fps=202 q=2.8 size=   16075kB time=00:04:20.57 bitrate= 505.4kbits/s speed=6.74x    frame= 7907 fps=202 q=3.7 size=   16276kB time=00:04:23.89 bitrate= 505.2kbits/s speed=6.74x    frame= 8010 fps=202 q=3.6 size=   16486kB time=00:04:27.33 bitrate= 505.2kbits/s speed=6.74x    frame= 8114 fps=202 q=3.4 size=   16698kB time=00:04:30.81 bitrate= 505.1kbits/s speed=6.75x    frame= 8218 fps=202 q=3.6 size=   16905kB time=00:04:34.27 bitrate= 504.9kbits/s speed=6.75x    frame= 8318 fps=202 q=3.9 size=   17115kB time=00:04:37.61 bitrate= 505.0kbits/s speed=6.75x    frame= 8425 fps=202 q=2.7 size=   17330kB time=00:04:41.17 bitrate= 504.9kbits/s speed=6.75x    frame= 8527 fps=202 q=3.8 size=   17540kB time=00:04:44.60 bitrate= 504.9kbits/s speed=6.75x    frame= 8626 fps=202 q=3.5 size=   17741kB time=00:04:47.90 bitrate= 504.8kbits/s speed=6.75x    frame= 8726 fps=202 q=4.6 size=   17955kB time=00:04:51.22 bitrate= 505.1kbits/s speed=6.75x    frame= 8831 fps=202 q=4.0 size=   18164kB time=00:04:54.73 bitrate= 504.9kbits/s speed=6.75x    frame= 8931 fps=202 q=3.5 size=   18368kB time=00:04:58.07 bitrate= 504.8kbits/s speed=6.75x    frame= 9031 fps=202 q=3.4 size=   18571kB time=00:05:01.39 bitrate= 504.8kbits/s speed=6.75x    frame= 9130 fps=202 q=3.4 size=   18771kB time=00:05:04.71 bitrate= 504.6kbits/s speed=6.75x    frame= 9232 fps=202 q=3.5 size=   18978kB time=00:05:08.12 bitrate= 504.6kbits/s speed=6.75x    frame= 9332 fps=202 q=4.3 size=   19182kB time=00:05:11.44 bitrate= 504.5kbits/s speed=6.75x    frame= 9436 fps=202 q=4.3 size=   19396kB time=00:05:14.90 bitrate= 504.6kbits/s speed=6.75x    frame= 9538 fps=202 q=3.3 size=   19598kB time=00:05:18.34 bitrate= 504.3kbits/s speed=6.75x    frame= 9644 fps=202 q=3.5 size=   19818kB time=00:05:21.85 bitrate= 504.4kbits/s speed=6.75x    frame= 9753 fps=202 q=4.3 size=   20036kB time=00:05:25.49 bitrate= 504.3kbits/s speed=6.76x    frame= 9855 fps=202 q=3.5 size=   20247kB time=00:05:28.88 bitrate= 504.3kbits/s speed=6.76x    frame= 9955 fps=202 q=3.5 size=   20445kB time=00:05:32.25 bitrate= 504.1kbits/s speed=6.76x    frame=10055 fps=202 q=3.8 size=   20648kB time=00:05:35.57 bitrate= 504.1kbits/s speed=6.75x    frame=10154 fps=202 q=3.6 size=   20852kB time=00:05:38.87 bitrate= 504.1kbits/s speed=6.75x    frame=10259 fps=202 q=4.0 size=   21061kB time=00:05:42.35 bitrate= 504.0kbits/s speed=6.75x    frame=10361 fps=202 q=3.3 size=   21271kB time=00:05:45.79 bitrate= 503.9kbits/s speed=6.76x    frame=10459 fps=202 q=4.1 size=   21474kB time=00:05:49.06 bitrate= 504.0kbits/s speed=6.75x    frame=10564 fps=202 q=3.5 size=   21687kB time=00:05:52.57 bitrate= 503.9kbits/s speed=6.76x    frame=10664 fps=202 q=3.7 size=   21885kB time=00:05:55.89 bitrate= 503.8kbits/s speed=6.75x    frame=10761 fps=202 q=5.5 size=   22092kB time=00:05:59.11 bitrate= 503.9kbits/s speed=6.75x    frame=10858 fps=202 q=4.2 size=   22290kB time=00:06:02.37 bitrate= 503.9kbits/s speed=6.75x    frame=10948 fps=202 q=3.9 size=   22473kB time=00:06:05.38 bitrate= 503.8kbits/s speed=6.74x    frame=11052 fps=202 q=3.7 size=   22678kB time=00:06:08.84 bitrate= 503.7kbits/s speed=6.74x    frame=11157 fps=202 q=3.9 size=   22891kB time=00:06:12.33 bitrate= 503.7kbits/s speed=6.75x    frame=11260 fps=202 q=3.1 size=   23104kB time=00:06:15.79 bitrate= 503.6kbits/s speed=6.75x    frame=11362 fps=202 q=3.4 size=   23304kB time=00:06:19.18 bitrate= 503.5kbits/s speed=6.75x    frame=11464 fps=202 q=2.8 size=   23525kB time=00:06:22.56 bitrate= 503.7kbits/s speed=6.75x    frame=11566 fps=202 q=3.9 size=   23734kB time=00:06:25.97 bitrate= 503.7kbits/s speed=6.75x    frame=11660 fps=202 q=4.6 size=   23930kB time=00:06:29.13 bitrate= 503.8kbits/s speed=6.74x    frame=11758 fps=202 q=4.2 size=   24128kB time=00:06:32.41 bitrate= 503.7kbits/s speed=6.74x    frame=11855 fps=202 q=3.9 size=   24325kB time=00:06:35.63 bitrate= 503.7kbits/s speed=6.74x    frame=11956 fps=202 q=4.1 size=   24535kB time=00:06:39.00 bitrate= 503.7kbits/s speed=6.74x    frame=12056 fps=202 q=4.5 size=   24738kB time=00:06:42.34 bitrate= 503.7kbits/s speed=6.74x    frame=12150 fps=202 q=4.3 size=   24931kB time=00:06:45.46 bitrate= 503.7kbits/s speed=6.73x    frame=12243 fps=202 q=4.3 size=   25120kB time=00:06:48.57 bitrate= 503.7kbits/s speed=6.73x    frame=12335 fps=201 q=4.5 size=   25301kB time=00:06:51.61 bitrate= 503.5kbits/s speed=6.72x    frame=12430 fps=201 q=3.2 size=   25490kB time=00:06:54.79 bitrate= 503.4kbits/s speed=6.72x    frame=12534 fps=201 q=2.7 size=   25699kB time=00:06:58.30 bitrate= 503.3kbits/s speed=6.72x    frame=12636 fps=201 q=4.9 size=   25906kB time=00:07:01.69 bitrate= 503.3kbits/s speed=6.72x    frame=12725 fps=201 q=4.5 size=   26091kB time=00:07:04.68 bitrate= 503.3kbits/s speed=6.72x    frame=12825 fps=201 q=4.3 size=   26294kB time=00:07:08.00 bitrate= 503.3kbits/s speed=6.72x    frame=12923 fps=201 q=3.6 size=   26495kB time=00:07:11.28 bitrate= 503.3kbits/s speed=6.71x    frame=13018 fps=201 q=4.3 size=   26690kB time=00:07:14.43 bitrate= 503.3kbits/s speed=6.71x    frame=13117 fps=201 q=3.1 size=   26893kB time=00:07:17.71 bitrate= 503.3kbits/s speed=6.71x    frame=13213 fps=201 q=3.0 size=   27092kB time=00:07:20.94 bitrate= 503.3kbits/s speed=6.71x    frame=13310 fps=201 q=4.0 size=   27289kB time=00:07:24.16 bitrate= 503.3kbits/s speed= 6.7x    frame=13408 fps=201 q=4.3 size=   27489kB time=00:07:27.46 bitrate= 503.3kbits/s speed= 6.7x    frame=13504 fps=201 q=4.0 size=   27683kB time=00:07:30.67 bitrate= 503.2kbits/s speed= 6.7x    frame=13602 fps=201 q=3.3 size=   27881kB time=00:07:33.92 bitrate= 503.2kbits/s speed= 6.7x    frame=13697 fps=201 q=3.5 size=   28076kB time=00:07:37.07 bitrate= 503.2kbits/s speed= 6.7x    frame=13790 fps=201 q=4.3 size=   28266kB time=00:07:40.19 bitrate= 503.2kbits/s speed=6.69x    frame=13885 fps=200 q=2.8 size=   28461kB time=00:07:43.37 bitrate= 503.2kbits/s speed=6.69x    frame=13974 fps=200 q=4.2 size=   28640kB time=00:07:46.32 bitrate= 503.1kbits/s speed=6.69x    frame=14072 fps=200 q=3.9 size=   28837kB time=00:07:49.61 bitrate= 503.0kbits/s speed=6.68x    frame=14169 fps=200 q=4.3 size=   29032kB time=00:07:52.84 bitrate= 503.0kbits/s speed=6.68x    frame=14270 fps=200 q=4.8 size=   29243kB time=00:07:56.21 bitrate= 503.0kbits/s speed=6.68x    frame=14314 fps=200 q=4.4 Lsize=   29734kB time=00:07:57.67 bitrate= 509.9kbits/s speed=6.68x    
video:21887kB audio:7446kB subtitle:0kB other streams:0kB global headers:0kB muxing overhead: 1.367678%
[aac @ 0x7f87bd027600] Qavg: 562.409
2017-02-24 14:49:32
copying archival master to lc folder

2017-02-24 14:50:36

copying S2016_001_AEWVJA_006_STO_007.mov from source to destination...
srce S2016_001_AEWVJA_006_STO_007.mov 9722069ff6d5cf7df4b60013cb6e67662ce79baa
dest S2016_001_AEWVJA_006_STO_007.mov 9722069ff6d5cf7df4b60013cb6e67662ce79baa

2017-02-24 14:50:40

copying S2016_001_AEWVJA_006_STO_007.flv from source to destination...
srce S2016_001_AEWVJA_006_STO_007.flv 1f4e8a9eba2fd825f360f455da0de5742b26dcdd
dest S2016_001_AEWVJA_006_STO_007.flv 1f4e8a9eba2fd825f360f455da0de5742b26dcdd

2017-02-24 14:50:44

copying S2016_001_AEWVJA_006_STO_007.mp4 from source to destination...
srce S2016_001_AEWVJA_006_STO_007.mp4 fc7f85af5a5a99946366f4b35f7eb8a5e4fa16fb
dest S2016_001_AEWVJA_006_STO_007.mp4 fc7f85af5a5a99946366f4b35f7eb8a5e4fa16fb

2017-02-24 14:50:59

copying S2016_001_AEWVJA_006_STO_007.mpeg from source to destination...
srce S2016_001_AEWVJA_006_STO_007.mpeg 2fe8a7853d9895344c697eccec3e5dcef4bcad9c
dest S2016_001_AEWVJA_006_STO_007.mpeg 2fe8a7853d9895344c697eccec3e5dcef4bcad9c

2017-02-24 14:50:59
sending hashes to filemaker
2017-02-24 14:51:04
verifying hashes in filemaker
2017-02-24 14:51:04
hash of S2016_001_AEWVJA_006_STO_007.mov verified correctly as: ("('9722069ff6d5cf7df4b60013cb6e67662ce79baa', )\n", '')
2017-02-24 14:51:05
hash of S2016_001_AEWVJA_006_STO_007.mp4 verified correctly as: ("('fc7f85af5a5a99946366f4b35f7eb8a5e4fa16fb', )\n", '')
2017-02-24 14:51:05
hash of S2016_001_AEWVJA_006_STO_007.mpeg verified correctly as: ("('2fe8a7853d9895344c697eccec3e5dcef4bcad9c', )\n", '')
2017-02-24 14:51:05
hash of S2016_001_AEWVJA_006_STO_007.flv verified correctly as: ("('1f4e8a9eba2fd825f360f455da0de5742b26dcdd', )\n", '')
2017-02-24 14:51:05
moving archival master from copyto
2017-02-24 14:51:05
moving mpeg from copyto
2017-02-24 14:51:05
moving flv from copyto
2017-02-24 14:51:05
moving mp4 from copyto
2017-02-24 14:51:10
removing /Volumes/G-SPEED Q/Titan-HD/HM/IncomingSC/S2016_001_AEWVJA_006_STO_007/.DS_Store
2017-02-24 14:51:10
removing accession dir /Volumes/G-SPEED Q/Titan-HD/HM/IncomingSC/S2016_001_AEWVJA_006_STO_007 from IncomingQT
2017-02-24 14:51:12
makevideos processed accession /Volumes/G-SPEED Q/Titan-HD/HM/IncomingSC/S2016_001_AEWVJA_006_STO_007 successfully
2017-02-24 14:51:15
makevideos completed successfully
